<svg xmlns="http://www.w3.org/2000/svg" width="52" height="46" viewBox="-0.5 -0.5 52 46"><g pointer-events="all"><path fill="#fff" d="M2 2h46v32H2z"/><path fill="none" d="M15 7h20v20H15z"/><path d="M29.97 10.02 35 11.03A6.042 6.042 0 0 0 29.97 7v18.14c-.16 1.06-1.55 1.86-3.15 1.81-1.61-.06-2.87-.94-2.87-2.02 0-1.07 1.26-1.95 2.87-2.01 1.6-.05 2.99.74 3.15 1.81Z" stroke="#000" stroke-width="2" stroke-miterlimit="10"/><path d="M15 10.95h10.06M15 15.99h10.06M15 21.03h10.06" fill="none" stroke="#000" stroke-width="2" stroke-miterlimit="10"/><path fill="none" d="M0 0h50v45H0z"/><path d="M2.33 35.55c-.67-.06-1.28-.38-1.71-.89a2.4 2.4 0 0 1-.55-1.8V2.51C.17 1.25 1.15.24 2.43.06h44.71C48.61 0 49.87 1.08 50 2.51l-.05 30.84c-.29 1.3-1.45 2.24-2.81 2.3H31.46l-.7 2.79c-.16.64-.05 1.32.31 1.89.36.56.94.96 1.6 1.1 1.52.5 3.12.72 4.72.63h2.92V45H7.71v-2.94h3.46c1.82.01 3.62-.28 5.33-.88 1.34-.31 2.17-1.63 1.85-2.94l-.45-2.59Zm1.46-3.52h42.34V3.83H3.79Z"/></g></svg>