<?xml version="1.0" encoding="UTF-8"?>
<!DOCTYPE svg PUBLIC "-//W3C//DTD SVG 1.1//EN" "http://www.w3.org/Graphics/SVG/1.1/DTD/svg11.dtd">
<svg xmlns="http://www.w3.org/2000/svg" xmlns:xlink="http://www.w3.org/1999/xlink" version="1.1" width="52px" height="46px" viewBox="-0.5 -0.5 52 46"><defs/><g><rect x="2" y="2" width="46" height="32" fill="#ffffff" stroke="none" pointer-events="all"/><rect x="15" y="7" width="20" height="20" fill="none" stroke="none" pointer-events="all"/><path d="M 29.97 10.02 L 35 11.03 C 34.24 8.83 32.28 7.26 29.97 7 L 29.97 25.14 C 29.81 26.2 28.42 27 26.82 26.95 C 25.21 26.89 23.95 26.01 23.95 24.93 C 23.95 23.86 25.21 22.98 26.82 22.92 C 28.42 22.87 29.81 23.66 29.97 24.73 Z" fill="#000000" stroke="#000000" stroke-width="2" stroke-miterlimit="10" pointer-events="all"/><path d="M 15 10.95 L 25.06 10.95 M 15 15.99 L 25.06 15.99 M 15 21.03 L 25.06 21.03" fill="none" stroke="#000000" stroke-width="2" stroke-miterlimit="10" pointer-events="all"/><rect x="0" y="0" width="50" height="45" fill="none" stroke="none" pointer-events="all"/><path d="M 2.33 35.55 C 1.66 35.49 1.05 35.17 0.62 34.66 C 0.2 34.16 0 33.51 0.07 32.86 L 0.07 2.51 C 0.17 1.25 1.15 0.24 2.43 0.06 L 47.14 0.06 C 48.61 0 49.87 1.08 50 2.51 L 49.95 33.35 C 49.66 34.65 48.5 35.59 47.14 35.65 L 31.46 35.65 L 30.76 38.44 C 30.6 39.08 30.71 39.76 31.07 40.33 C 31.43 40.89 32.01 41.29 32.67 41.43 C 34.19 41.93 35.79 42.15 37.39 42.06 L 40.31 42.06 L 40.31 45 L 7.71 45 L 7.71 42.06 L 11.17 42.06 C 12.99 42.07 14.79 41.78 16.5 41.18 C 17.84 40.87 18.67 39.55 18.35 38.24 L 17.9 35.65 Z M 3.79 32.03 L 46.13 32.03 L 46.13 3.83 L 3.79 3.83 Z" fill="#000000" stroke="none" pointer-events="all"/></g></svg>